<mxfile host="app.diagrams.net" modified="2022-04-01T04:44:56.053Z" agent="5.0 (Windows NT 10.0; Win64; x64) AppleWebKit/537.36 (KHTML, like Gecko) Chrome/99.0.4844.84 Safari/537.36" etag="YKtxDQMZzjuJNK_XV7kE" version="17.2.4" type="github">
  <diagram id="j9-zPIuTRtvwQkuq-qpG" name="Page-1">
    <mxGraphModel dx="925" dy="536" grid="1" gridSize="10" guides="1" tooltips="1" connect="1" arrows="1" fold="1" page="1" pageScale="1" pageWidth="850" pageHeight="1100" math="0" shadow="0">
      <root>
        <mxCell id="0" />
        <mxCell id="1" parent="0" />
        <mxCell id="EKDc-KFi7niFZFVhuuSw-1" value="&lt;h2&gt;Azure Data Factory&lt;/h2&gt;" style="rounded=0;whiteSpace=wrap;html=1;fillColor=#fff2cc;strokeColor=#d6b656;fontFamily=Tahoma;" vertex="1" parent="1">
          <mxGeometry x="200" y="200" width="280" height="110" as="geometry" />
        </mxCell>
        <mxCell id="EKDc-KFi7niFZFVhuuSw-2" value="" style="sketch=0;aspect=fixed;html=1;points=[];align=center;image;fontSize=12;image=img/lib/mscae/Data_Factory.svg;" vertex="1" parent="1">
          <mxGeometry x="325" y="270" width="30" height="30" as="geometry" />
        </mxCell>
      </root>
    </mxGraphModel>
  </diagram>
</mxfile>
